<svg width="31" height="26" viewBox="0 0 31 26" fill="none" xmlns="http://www.w3.org/2000/svg">
<path d="M24.2755 19.6C20.8263 17.6 21.6379 16.1 24.4784 14.7C26.0002 14 29.348 11.3 30.6668 12.2L24.2755 19.6ZM21.9422 22.1C19.9132 22 17.5799 21.7 15.5509 22.2C16.7683 22.5 19.8118 23.4 16.9712 24.1C17.9857 25.5 19.6089 25.4 20.6234 24.2C20.2176 24 19.9132 23.7 19.6089 23.5C20.7248 23.2 21.7393 22.6 21.9422 22.1ZM23.1596 20.5C22.2465 19.7 21.2321 19.7 20.4205 20.5C19.2031 18.4 14.9422 19.1 12.9132 18.8C14.0292 21.4 22.6523 21.9 23.1596 20.5ZM16.261 18.3C14.6379 17.8 9.36249 17.9 12.8118 16.5C13.9277 16.1 19.6089 16.6 16.261 18.3ZM18.29 15.3C17.7828 14.2 18.6958 12.9 20.0147 13.9C21.2321 14.7 19.406 15.9 18.29 15.3ZM15.348 15.4C13.0147 16.1 9.97119 14.6 13.7248 13.9C16.0581 13.4 18.4929 14.4 15.348 15.4C15.2466 15.4 15.4494 15.4 15.348 15.4ZM12.7103 9.19996C12.2031 10.8 11.1886 11.1 11.29 9.19996C11.3915 6.89996 12.9132 7.49996 14.5364 6.59996C15.8552 5.89996 16.5654 3.19996 18.8987 4.79996C19.9132 5.49996 21.1306 4.89996 21.435 5.99996C21.435 5.89996 18.4929 12.7 20.1161 12.7C16.8697 12.7 18.29 8.89996 19.5074 6.29996C18.29 6.89996 16.3625 10.6 17.9857 11.3C17.1741 12.4 14.5364 13.9 13.2176 12.8C12.1016 11.8 12.7103 10.5 12.7103 9.19996ZM8.65235 12C2.97119 12 6.82626 3.39996 8.7538 3.89996C10.9857 4.59996 10.6813 12.1 8.65235 12ZM2.36249 3.79996C-0.275191 3.69996 0.840754 1.19996 2.66684 0.699957C4.39148 0.199957 7.9422 1.79996 9.15959 2.89996C7.33351 3.49996 5.00017 3.39996 2.97119 3.49996C2.76829 1.49996 2.26104 2.19996 2.36249 3.79996Z" fill="#DC6243"/>
</svg>
